<svg xmlns="http://www.w3.org/2000/svg" viewBox="0 0 1046.39 607.2"><defs><style>.cls-1,.cls-2,.cls-3,.cls-5{fill:#fff;}.cls-2,.cls-6,.cls-7,.cls-9{stroke:#fff;stroke-miterlimit:10;}.cls-2{stroke-width:11.14px;}.cls-3{font-size:65px;font-family:TwCenMT-Bold, Tw Cen MT;font-weight:700;letter-spacing:0.1em;}.cls-4{font-size:9px;letter-spacing:0.1em;}.cls-5{font-size:185.69px;font-family:SegoeUI, Segoe UI;letter-spacing:-0.01em;}.cls-6,.cls-7,.cls-9{stroke-width:2.23px;}.cls-7{letter-spacing:-0.02em;}.cls-8{fill:none;letter-spacing:-0.03em;}.cls-9{letter-spacing:-0.01em;}</style></defs><title>LOGO OFFICIAL WHITE</title><g id="Layer_2" data-name="Layer 2"><g id="Logo"><path class="cls-1" d="M533.24,241.67c-.67-.45-1.11-.67-1.34-1.11-4-3.34-8.24-3.34-12.47-.45-.67.45-1.34,1.11-2.45.22-6.91-5.12-13.37-10.47-17.15-18.71-3.56-7.8-10.91-12.92-17.37-18.49-7.8-6.68-15.37-13.37-22.72-20.49-2.45-2.45-4.9-4.68-7.57-7.13a176.07,176.07,0,0,1-20.49-22.28,348.51,348.51,0,0,1-19.6-31.18c-4.45-7.8-8-16-13.14-23.39a2.68,2.68,0,0,1,0-3.12c.67-1.11,1.56-1.11,2.67-.67,8.69,3.34,17.15,6.91,25.84,10,10.91,4,21.16,9.13,32.52,12,4.45,1.11,8.69-.45,13.14-.45,5.35,0,10.69-.67,16.26-1.11,8.69-.45,17.6-.67,26.28-1.78,2.23-.22,4.68.67,7.13.45,10.69-.89,21.38.22,32.08.67,9.36.45,18.71.89,28.07,1.78,8.46.89,16-2.67,23.61-5.35,8.69-3.12,17.37-6.91,26.06-10.47l15.37-6c1.34-.45,2.9-1.56,4.23.22s.22,2.67-.67,4c-4.23,7.13-8,14.7-12,21.83-4.23,7.57-8.91,14.92-13.37,22.5-8,13.37-19.16,24.06-30.07,35-9.8,9.58-20,18.49-30.29,27.4-6.46,5.35-12.25,11.14-15.82,18.93-2.67,5.79-7.35,9.8-12.7,13.14C535.47,239.22,534.58,240.56,533.24,241.67Z"/><path class="cls-1" d="M901.45,5.78a4,4,0,0,1-2.23,2.45c-4,1.56-8,3.34-12,4.9a15.27,15.27,0,0,0-7.57,6.46c-9.36,14.7-18.93,29.18-28.29,43.88-2.23,3.56-5.79,3.34-9.13,4-12,2.45-23.83,4.46-35.86,6.68-4.9.89-10,2-14.92,2.9-2,.45-3.79.67-4.46,3.34a5,5,0,0,0,2.23,5.35c2.23,1.78,4.23,3.56,6.46,5.35a2,2,0,0,1,1.11,2c-.22,1.11-1.34.89-2.23.89-8.24.67-16.48,1.78-24.5,1.78-8.69,0-16.71,2.45-24.95,5.35-20.27,7.13-40.54,14.26-60.59,21.61-11.36,4-22.5,8-33.86,12.25-1.34.45-2.67.89-4.23,1.56-.67.22-1.56.45-2-.22-.89-.89-.22-1.56.22-2.23,2.67-4.68,5.57-9.13,7.8-13.81,2.9-6,7.13-11.36,8.69-18,.22-1.11,1.34-1.56,2-2.23,35-26.28,70.17-52.57,105.14-79.08,2.9-2.23,6-2.67,9.36-3.12,8-1.11,16-2.67,24.06-4,18.93-3.12,37.87-6,56.58-9.13C867.15,3.33,875.83,2,884.74.21a11.65,11.65,0,0,1,7.8,1.11c2.45,1.11,4.9,2,7.13,3.12C900.56,4.66,901.45,4.89,901.45,5.78Z"/><path class="cls-1" d="M406.28,136.53c-7.35-2.67-14.48-5.12-21.61-7.8l-48.78-17.37-40.1-14c-5.12-1.78-10.25-1.34-15.37-1.78-7.8-.89-15.59-.89-23.39-1.34-.89,0-2,.22-2.45-1.11-.22-.89.67-1.56,1.34-2,2-1.56,4-3.34,6-4.9,1.78-1.56,3.12-3.12,2.67-5.57-.45-2.67-2.45-3.12-4.68-3.34-15.15-2.9-30.52-5.79-45.66-8.69-2.45-.45-5.12-.89-7.57-1.34a9.6,9.6,0,0,1-7.57-5.12c-8.69-13.59-17.6-27-26.06-40.76-3.12-5.12-7.57-8-12.92-9.8-2.67-.89-5.35-2.23-8.24-3.12a2.35,2.35,0,0,1-1.78-2.23c0-1.11.89-1.11,1.78-1.56,2.67-1.11,5.35-2.45,8-3.56,2-1.11,4.23-.89,6.46-.45C180.85,3.1,195.56,5.55,210,8c13.59,2.23,27.18,4.23,40.54,6.46,9.13,1.56,18.49,2.9,27.62,4.46,4.23.89,7.13,4.23,10.47,6.68,14.48,10.69,29.4,21.83,44.1,33,18.27,13.81,36.75,27.62,55,41.43a6.25,6.25,0,0,1,2.23,3.12c2.23,6.46,6.24,12.25,9.13,18.49,2.45,4.9,5.57,9.13,7.57,14.26C406.72,136.09,406.5,136.31,406.28,136.53Z"/><path class="cls-1" d="M531.69,303.37c-.45-2.67.45-5.35,2-8,2.23-3.79,4-7.8,6.24-11.58,3.79-6.46,4.9-13.37,6.24-20.49.45-2.45-.67-4.45-2-6.46-1.34-2.45-3.79-4.9-3.79-7.35,0-2.67,4-3.12,6-4.68a44.38,44.38,0,0,0,13.14-15.59c2-3.56,2-3.79,5.35-1.11a62.7,62.7,0,0,0,11.14,7.8c6.46,3.56,12.7,2.45,19.16.45,9.58-2.9,18.71-6.91,26.06-13.59,5.12-4.68,8.91-10.47,12.47-16.26,7.13-11.81,13.81-23.83,19.82-36.09a229,229,0,0,0,10-25.84,5.54,5.54,0,0,0,.22-1.78c-.67-4,1.34-5.79,4.9-6.91,7.57-2.45,14.92-5.35,22.27-7.8.89-.22,1.78-1.11,2.67-.22s0,1.78-.22,2.67c-4.23,8.91-8.69,17.6-12.92,26.28-6.46,12.7-12.25,25.84-18.27,38.76-5.35,11.36-10.91,22.5-16.48,33.64-4.9,10-9.8,20.27-14.48,30.52a10.55,10.55,0,0,1-4.68,4.68c-16.48,8-33.19,16.26-49.67,24.28L554.18,300c-6,2.9-11.81,6.46-18,9.13-4,1.78-4.23,1.56-4.46-2.9C531.69,305.15,531.69,304.48,531.69,303.37Z"/><path class="cls-1" d="M466.2,238.33c6-.22,11.14-3.12,15.82-6.46a44.54,44.54,0,0,0,4.9-4.23q2.34-2.34,4,.67l3.34,6c3.34,5.79,8.69,9.58,14,12.92,2.23,1.34,2.67,2.45,1.11,4.68-1.34,1.78-2,4-3.34,5.79-2.67,3.79-.89,7.8-.22,11.81,1.34,10.25,7.57,18.49,11.81,27.4a16.63,16.63,0,0,1,.89,11.81,1.26,1.26,0,0,1-2,.89,8.24,8.24,0,0,1-2.45-1.11c-10.69-5.57-21.61-11.14-32.52-16.48-12.47-6.24-25.17-12.25-37.87-18.27l-20-10a6.14,6.14,0,0,1-3.34-3.34c-6.24-12.92-12.47-25.62-18.71-38.54-8.69-18.27-17.82-36.31-26.28-54.57-5.35-12-12-23.39-17.15-35.42-.45-1.11-1.78-2.23-.67-3.34.89-1.11,2.23,0,3.12.22,7.57,2.67,15.15,5.57,22.94,8.24,1.78.67,3.12,1.78,2.9,3.56-.67,4,1.34,7.35,2.45,10.69,4.68,14.26,11.58,27.62,18.93,40.76,4.23,7.57,8.69,14.92,13.59,22.05,8.69,13.14,21.38,19.6,35.86,23.61C460.41,237.88,463.3,238.55,466.2,238.33Z"/><path class="cls-1" d="M585.37,233.65c-4.9.45-8.69-2.23-12.47-4.46A35,35,0,0,1,567.1,225c-2.23-1.56-2.45-3.34-.67-5.12,3.34-3.12,6.68-6,10-8.91,1.34-1.11,2.23-.45,3.34.45,3.12,2.23,5.57,5.35,9.58,6.24,6.24,1.34,11.58-1.11,17.15-3.56,9.36-4.46,13.81-12.47,16.93-21.83,4.46-13.36,8.91-27,12.25-40.76.67-3.34,2-5.35,5.57-6,2.67-.45,5.35-1.78,8-2.67,2.67-1.11,3.34-.45,3.34,2.23a7.86,7.86,0,0,1-.67,3.12c-2.45,11.14-6.68,21.38-11.36,31.63-5.57,12-11.36,23.83-18.71,35-4.9,7.35-12.47,11.14-20,14.7A47.42,47.42,0,0,1,585.37,233.65Z"/><path class="cls-1" d="M464.64,233.2c-16.48-2.67-30.52-8.91-39.2-24.5a352.94,352.94,0,0,1-22.05-46.33A66.86,66.86,0,0,1,398.7,145c-.45-2.45.67-2.67,2.67-2,3.56,1.11,6.91,2.45,10.47,3.56,2,.67,2.45,2.23,2.9,4,3.12,13.81,7.57,27.18,12,40.54,2.23,6.68,4.9,13.36,10.25,18.27A36,36,0,0,0,456,218.5c5.79.89,10.47-1.56,14.26-5.79,1.78-2,3.34-2.45,5.35-.45,2.9,2.9,6,5.57,9.13,8.24,1.34,1.11,1.56,2.45,0,3.56A49.61,49.61,0,0,1,470.43,233,24.74,24.74,0,0,1,464.64,233.2Z"/><path class="cls-1" d="M539,263.28c-1.78,5.35-1.78,10.91-4.68,16-2.45,4-4.45,8.24-7.8,11.58-1.56,1.56-2,1.34-3.12-.22-2.67-4.23-4.9-8.69-7.35-13.14S513,268,512.53,263.05c-.22-3.56,2.9-6.91,5.12-10a25.35,25.35,0,0,1,4.23-4.23c2.45-2.45,5.35-2.23,8,.22,3.79,3.34,6,7.8,8.46,12.25A10.36,10.36,0,0,1,539,263.28Z"/><path class="cls-1" d="M621.68,174.4c-1.56,9.58-2.67,19.6-8,28.29-4.46,7.13-12,11.14-20.49,11.81-4.23.45-7.35-2.67-10-5.57-1.34-1.34-.67-3.12.67-4.46,1.78-1.56,3.79-2.9,5.57-4.45a2.15,2.15,0,0,1,3.12.22c5.57,6,14.7,1.11,16.93-5.57,1.34-3.79,2.23-7.35.89-11.36a3.82,3.82,0,0,1,.89-4.23c2-2.45,4.45-4.68,6.68-6.91.67-.67,1.34-2.23,2.67-1.34C621.68,171.5,621.68,172.84,621.68,174.4Z"/><path class="cls-1" d="M458.18,214.27c-5.35-.45-10-2.67-14.26-5.57C434.34,202.47,433.68,192,431,182.2a39.12,39.12,0,0,1-1.34-8.91c0-.89-.22-1.78.67-2.23s1.56.45,2,.89c1.34,1.11,2.67,2.23,3.79,3.34,3.12,3.12,5.12,6,4,11.36a14,14,0,0,0,7.13,15.15c3.12,2,6.46,2.23,9.58-.22,2.67-2,4.68-2,6.91.45a18,18,0,0,0,3.12,2.67c2.23,1.78,2,3.56-.22,5.12C464.42,211.82,462,214.49,458.18,214.27Z"/><path class="cls-1" d="M608.76,188c0,6.24-3.34,11.36-8.46,12.7-2,.67-6-.89-7.13-2.67a1.69,1.69,0,0,1,2.45-2.23c1.34.67,2.23,2.67,3.79,1.56,1.11-.89.45-2.67.67-4.23a11.3,11.3,0,0,1,4.9-8.69c.67-.67,1.56-1.78,2.67-1.11.89.45.89,1.78,1.11,2.9A4.75,4.75,0,0,1,608.76,188Z"/><path class="cls-1" d="M452.16,201.13c-1.11-.45-2.23-.67-3.12-1.11-5.12-2.67-8-9.8-6.46-15.37.45-1.78,1.11-1.78,2.23-.67,3.12,2.9,6.46,5.57,5.57,10.69-.22,1.11-.22,2.67,1.11,3.34s2-.67,2.9-1.34,1.78-1.56,2.9-.22c1.11,1.56-.67,2-1.34,2.67A6.93,6.93,0,0,1,452.16,201.13Z"/></g><g id="Text"><line class="cls-2" x1="11.14" y1="340.94" x2="1040.43" y2="340.94"/><line class="cls-2" x1="11.14" y1="528.05" x2="1040.43" y2="531.43"/><text class="cls-3" transform="translate(993.06 355.99) rotate(90)">2<tspan class="cls-4" x="41.2" y="0"> </tspan><tspan x="44.52" y="0">018</tspan></text><path class="cls-1" d="M680.07,513.16H663.28l-18.69-60.67H599.73l-18,60.67H564.88l49.65-157.32h15.71Zm-35.48-60.67-20.31-67a75.71,75.71,0,0,1-2-10.53h-.36a70,70,0,0,1-2.08,10.53l-20.13,67Z"/><text class="cls-5" transform="translate(1.11 513.71) scale(1 1.21)"><tspan class="cls-6">P</tspan><tspan class="cls-7" x="101.4" y="0">R</tspan><tspan class="cls-6" x="208.05" y="0">OFH</tspan><tspan class="cls-8" x="562.75" y="0">A</tspan><tspan class="cls-9" x="676.29" y="0">CKS</tspan></text></g></g></svg>