<svg xmlns="http://www.w3.org/2000/svg" viewBox="0 0 1502.67 620.41"><defs><style>.cls-1{fill:#fff;}</style></defs><title>PROF</title><g id="Layer_2" data-name="Layer 2"><g id="Layer_1-2" data-name="Layer 1"><path class="cls-1" d="M766.26,483.34c-1.34-.89-2.23-1.34-2.67-2.23-8-6.68-16.48-6.68-24.95-.89-1.34.89-2.67,2.23-4.9.45-13.81-10.25-26.73-20.94-34.3-37.42-7.13-15.59-21.83-25.84-34.75-37-15.59-13.36-30.74-26.73-45.44-41-4.9-4.9-9.8-9.36-15.15-14.26-14.7-13.81-29-28.51-41-44.55a697,697,0,0,1-39.2-62.37c-8.91-15.59-16-32.08-26.28-46.78a5.35,5.35,0,0,1,0-6.24c1.34-2.23,3.12-2.23,5.35-1.34,17.37,6.68,34.3,13.81,51.68,20,21.83,8,42.32,18.27,65,24.06,8.91,2.23,17.37-.89,26.28-.89,10.69,0,21.38-1.34,32.52-2.23,17.37-.89,35.19-1.34,52.57-3.56,4.46-.45,9.36,1.34,14.26.89,21.38-1.78,42.77.45,64.15,1.34,18.71.89,37.42,1.78,56.13,3.56,16.93,1.78,32.08-5.35,47.22-10.69C930.2,216,947.58,208.47,965,201.34l30.74-12c2.67-.89,5.79-3.12,8.46.45s.45,5.35-1.34,8c-8.46,14.26-16,29.4-24.06,43.66-8.46,15.15-17.82,29.85-26.73,45-16,26.73-38.31,48.11-60.14,69.94-19.6,19.16-40.09,37-60.59,54.8-12.92,10.69-24.5,22.28-31.63,37.87-5.35,11.58-14.7,19.6-25.39,26.28C770.71,478.44,768.93,481.11,766.26,483.34Z"/><path class="cls-1" d="M1502.67,11.55a8.1,8.1,0,0,1-4.45,4.9c-8,3.12-16,6.68-24.06,9.8-6.68,2.67-11.14,6.68-15.15,12.92-18.71,29.4-37.87,58.36-56.58,87.76-4.45,7.13-11.58,6.68-18.27,8-24.06,4.9-47.67,8.91-71.73,13.37-9.8,1.78-20,4-29.85,5.79-4,.89-7.57,1.34-8.91,6.68-.89,4.9.89,8,4.45,10.69,4.45,3.56,8.46,7.13,12.92,10.69,1.34.89,2.67,2.23,2.23,4-.45,2.23-2.67,1.78-4.45,1.78-16.48,1.34-33,3.56-49,3.56-17.37,0-33.41,4.9-49.9,10.69-40.54,14.26-81.08,28.51-121.18,43.21-22.72,8-45,16-67.72,24.5-2.67.89-5.35,1.78-8.46,3.12-1.34.45-3.12.89-4-.45-1.78-1.78-.45-3.12.45-4.45,5.35-9.36,11.14-18.27,15.59-27.62,5.79-12,14.26-22.72,17.37-36.09.45-2.23,2.67-3.12,4-4.45,69.94-52.57,140.33-105.14,210.28-158.15,5.79-4.45,12-5.35,18.71-6.24,16-2.23,32.08-5.35,48.11-8,37.87-6.24,75.74-12,113.16-18.27,17.82-2.67,35.19-5.35,53-8.91,5.79-.89,10.69-.45,15.59,2.23,4.9,2.23,9.8,4,14.26,6.24C1500.89,9.33,1502.67,9.77,1502.67,11.55Z"/><path class="cls-1" d="M512.32,273.06c-14.7-5.35-29-10.25-43.21-15.59l-97.56-34.75-80.19-28.07c-10.25-3.56-20.49-2.67-30.74-3.56-15.59-1.78-31.18-1.78-46.78-2.67-1.78,0-4,.45-4.9-2.23-.45-1.78,1.34-3.12,2.67-4,4-3.12,8-6.68,12-9.8,3.56-3.12,6.24-6.24,5.35-11.14-.89-5.35-4.9-6.24-9.36-6.68-30.29-5.79-61-11.58-91.33-17.37-4.9-.89-10.25-1.78-15.15-2.67A19.2,19.2,0,0,1,98,124.27C80.64,97.09,62.82,70.36,45.89,42.74,39.65,32.49,30.74,26.7,20,23.14,14.7,21.36,9.36,18.68,3.56,16.9,1.34,16,0,14.67,0,12.45s1.78-2.23,3.56-3.12c5.35-2.23,10.69-4.9,16-7.13,4-2.23,8.46-1.78,12.92-.89,29,4.9,58.36,9.8,87.32,14.7,27.18,4.45,54.35,8.46,81.08,12.92,18.27,3.12,37,5.79,55.24,8.91,8.46,1.78,14.26,8.46,20.94,13.36,29,21.38,58.81,43.66,88.21,65.93,36.53,27.62,73.51,55.24,110,82.86a12.5,12.5,0,0,1,4.45,6.24c4.46,12.92,12.47,24.5,18.27,37,4.9,9.8,11.14,18.27,15.15,28.51C513.22,272.17,512.77,272.62,512.32,273.06Z"/><path class="cls-1" d="M763.14,606.74c-.89-5.35.89-10.69,4-16,4.46-7.57,8-15.59,12.47-23.17,7.57-12.92,9.8-26.73,12.47-41,.89-4.9-1.34-8.91-4-12.92-2.67-4.9-7.57-9.8-7.57-14.7,0-5.35,8-6.24,12-9.36,11.58-8.46,19.6-18.71,26.28-31.18,4-7.13,4-7.57,10.69-2.23a125.4,125.4,0,0,0,22.27,15.59c12.92,7.13,25.39,4.9,38.31.89,19.16-5.79,37.42-13.81,52.12-27.18,10.25-9.36,17.82-20.94,24.95-32.52,14.26-23.61,27.62-47.67,39.65-72.17,8-16.93,14.26-34.3,20-51.68a11.07,11.07,0,0,0,.45-3.56c-1.34-8,2.67-11.58,9.8-13.81,15.15-4.9,29.85-10.69,44.55-15.59,1.78-.45,3.56-2.23,5.35-.45s0,3.56-.45,5.35c-8.46,17.82-17.37,35.19-25.84,52.57-12.92,25.39-24.5,51.68-36.53,77.52-10.69,22.72-21.83,45-33,67.27-9.8,20-19.6,40.54-29,61a21.11,21.11,0,0,1-9.36,9.36c-33,16-66.38,32.52-99.35,48.56l-45.44,22.72c-12,5.79-23.61,12.92-36.09,18.27-8,3.56-8.46,3.12-8.91-5.79C763.14,610.31,763.14,609,763.14,606.74Z"/><path class="cls-1" d="M632.16,476.66c12-.45,22.27-6.24,31.63-12.92a89.09,89.09,0,0,0,9.8-8.46q4.68-4.68,8,1.34l6.68,12c6.68,11.58,17.37,19.16,28.07,25.84,4.46,2.67,5.35,4.9,2.23,9.36-2.67,3.56-4,8-6.68,11.58-5.35,7.57-1.78,15.59-.45,23.61,2.67,20.49,15.15,37,23.61,54.8a33.26,33.26,0,0,1,1.78,23.61c-.45,2.23-2.23,2.67-4,1.78a16.47,16.47,0,0,1-4.9-2.23c-21.38-11.14-43.21-22.27-65-33-24.95-12.47-50.34-24.5-75.74-36.53l-40.09-20a12.29,12.29,0,0,1-6.68-6.68c-12.47-25.84-24.95-51.23-37.42-77.07-17.37-36.53-35.64-72.62-52.57-109.15-10.69-24.06-24.06-46.78-34.3-70.83-.89-2.23-3.56-4.45-1.34-6.68,1.78-2.23,4.46,0,6.24.45,15.15,5.35,30.29,11.14,45.89,16.48,3.56,1.34,6.24,3.56,5.79,7.13-1.34,8,2.67,14.7,4.9,21.38,9.36,28.51,23.17,55.24,37.87,81.53,8.46,15.15,17.37,29.85,27.18,44.1,17.37,26.28,42.77,39.2,71.73,47.22C620.58,475.77,626.37,477.1,632.16,476.66Z"/><path class="cls-1" d="M870.51,467.3c-9.8.89-17.37-4.45-24.95-8.91A70,70,0,0,1,834,449.93c-4.46-3.12-4.9-6.68-1.34-10.25,6.68-6.24,13.37-12,20-17.82,2.67-2.23,4.45-.89,6.68.89,6.24,4.46,11.14,10.69,19.16,12.47,12.47,2.67,23.17-2.23,34.3-7.13,18.71-8.91,27.62-24.95,33.86-43.66,8.91-26.73,17.82-53.91,24.5-81.53,1.34-6.68,4-10.69,11.14-12,5.35-.89,10.69-3.56,16-5.35,5.35-2.23,6.68-.89,6.68,4.45a15.72,15.72,0,0,1-1.34,6.24C998.81,318.5,990.35,339,981,359.49c-11.14,24.06-22.72,47.67-37.42,69.94-9.8,14.7-24.95,22.28-40.1,29.4A94.84,94.84,0,0,1,870.51,467.3Z"/><path class="cls-1" d="M629,466.41c-33-5.35-61-17.82-78.41-49a705.89,705.89,0,0,1-44.1-92.66c-4.45-11.14-8-22.72-9.36-34.75-.89-4.9,1.34-5.35,5.35-4,7.13,2.23,13.81,4.9,20.94,7.13,4,1.34,4.9,4.46,5.79,8,6.24,27.62,15.15,54.35,24.06,81.08,4.45,13.37,9.8,26.73,20.49,36.53A72,72,0,0,0,611.67,437c11.58,1.78,20.94-3.12,28.51-11.58,3.56-4,6.68-4.9,10.69-.89,5.79,5.79,12,11.14,18.27,16.48,2.67,2.23,3.12,4.9,0,7.13-8.46,7.13-17.82,13.81-28.51,17.82C637.06,466.86,633.06,466.41,629,466.41Z"/><path class="cls-1" d="M777.84,526.55c-3.56,10.69-3.56,21.83-9.36,32.08-4.9,8-8.91,16.48-15.59,23.17-3.12,3.12-4,2.67-6.24-.45-5.35-8.46-9.8-17.37-14.7-26.28s-6.24-19.16-7.13-29c-.45-7.13,5.79-13.81,10.25-20,2.23-3.12,5.35-5.79,8.46-8.46,4.9-4.9,10.69-4.46,16,.45,7.57,6.68,12,15.59,16.93,24.5A20.72,20.72,0,0,1,777.84,526.55Z"/><path class="cls-1" d="M943.12,348.8c-3.12,19.16-5.35,39.2-16,56.58-8.91,14.26-24.06,22.27-41,23.61-8.46.89-14.7-5.35-20-11.14-2.67-2.67-1.34-6.24,1.34-8.91,3.56-3.12,7.57-5.79,11.14-8.91,2.23-1.78,4.46-1.34,6.24.45,11.14,12,29.4,2.23,33.86-11.14,2.67-7.57,4.45-14.7,1.78-22.72-1.34-3.12-.45-5.79,1.78-8.46,4-4.9,8.91-9.36,13.37-13.81,1.34-1.34,2.67-4.46,5.35-2.67C943.12,343,943.12,345.68,943.12,348.8Z"/><path class="cls-1" d="M616.13,428.54c-10.69-.89-20-5.35-28.51-11.14-19.16-12.47-20.49-33.41-25.84-53-1.34-5.79-2.67-11.58-2.67-17.82,0-1.78-.45-3.56,1.34-4.45s3.12.89,4,1.78c2.67,2.23,5.35,4.46,7.57,6.68,6.24,6.24,10.25,12,8,22.72-2.23,12,2.67,23.61,14.26,30.29,6.24,4,12.92,4.45,19.16-.45,5.35-4,9.36-4,13.81.89,1.78,2.23,4,3.56,6.24,5.35,4.45,3.56,4,7.13-.45,10.25C628.6,423.64,623.7,429,616.13,428.54Z"/><path class="cls-1" d="M917.28,376c0,12.47-6.68,22.72-16.93,25.39-4,1.34-12-1.78-14.26-5.35-.89-1.34-.45-2.67.45-4,1.34-1.34,2.67-1.34,4.46-.45,2.67,1.34,4.45,5.35,7.57,3.12,2.23-1.78.89-5.35,1.34-8.46.45-7.57,4-12.92,9.8-17.37,1.34-1.34,3.12-3.56,5.35-2.23,1.78.89,1.78,3.56,2.23,5.79C917.73,373.75,917.28,375.08,917.28,376Z"/><path class="cls-1" d="M604.1,402.26c-2.23-.89-4.45-1.34-6.24-2.23-10.25-5.35-16-19.6-12.92-30.74.89-3.56,2.23-3.56,4.46-1.34,6.24,5.79,12.92,11.14,11.14,21.38-.45,2.23-.45,5.35,2.23,6.68s4-1.34,5.79-2.67,3.56-3.12,5.79-.45c2.23,3.12-1.34,4-2.67,5.35C609.89,400.48,607.22,401.37,604.1,402.26Z"/></g></g></svg>